<svg width="22" height="22" viewBox="0 0 22 22" fill="none" xmlns="http://www.w3.org/2000/svg">
<path d="M21.6054 19.7127L15.9724 14.077C15.916 14.0206 15.9079 13.9319 15.9536 13.8674C16.9716 12.4323 17.568 10.6801 17.568 8.78807C17.568 3.93448 13.6353 0 8.784 0C3.93265 0 0 3.93448 0 8.78807C0 13.6417 3.93265 17.5761 8.784 17.5761C10.6751 17.5761 12.4265 16.9768 13.861 15.9583C13.9255 15.9126 14.0168 15.9206 14.0705 15.9771L19.6874 21.5966C20.2086 22.118 21.0574 22.1395 21.5866 21.6289C22.1319 21.1075 22.1373 20.2448 21.6054 19.7127ZM13.9228 12.5479C13.5386 13.0746 13.0712 13.5395 12.5474 13.9238C11.4944 14.6978 10.1943 15.1547 8.78668 15.1547C5.2704 15.1547 2.4203 12.3033 2.4203 8.78538C2.4203 5.26747 5.2704 2.41605 8.78668 2.41605C12.303 2.41605 15.1531 5.26747 15.1531 8.78538C15.1504 10.1936 14.6937 11.4944 13.9228 12.5479Z" fill="white"/>
</svg>
